<svg width="19" height="25" viewBox="0 0 19 25" fill="none" xmlns="http://www.w3.org/2000/svg">
<path d="M1.68383 10.3442C1.45267 11.4645 1.33345 12.6228 1.36402 13.7447C1.39458 14.8666 1.61208 15.9896 1.94221 17.0386C2.30973 18.0877 2.78963 19.1001 3.41932 20.0761C3.71547 20.564 4.04924 21.0147 4.42039 21.4656C4.79155 21.9166 5.16293 22.3301 5.5717 22.7439C5.08747 22.4418 4.64108 22.0652 4.23231 21.6514C3.82354 21.2377 3.415 20.7865 3.08123 20.3358C2.37654 19.3968 1.82208 18.3465 1.45502 17.2225C1.08796 16.0986 0.908301 14.901 0.952742 13.7422C0.997411 12.546 1.22879 11.3883 1.68383 10.3442ZM16.8624 10.6235C15.6619 11.2892 14.4983 12.0299 13.409 12.8459C12.3197 13.6618 11.3046 14.5904 10.4011 15.5944C9.49764 16.5985 8.6685 17.6777 7.98845 18.8327C7.64831 19.4288 7.30818 20.025 7.04282 20.6216C6.73984 21.2554 6.51164 21.8896 6.28345 22.5239C6.36232 21.8513 6.55336 21.1795 6.78178 20.5079C7.01021 19.8362 7.27579 19.2022 7.61593 18.6061C8.25904 17.3761 9.08864 16.2221 10.0297 15.1809C10.9708 14.1397 12.0231 13.2487 13.187 12.4706C14.3506 11.7299 15.5885 11.0644 16.8624 10.6235Z" fill="#75A843"/>
<path d="M8.36691 5.59919C7.80199 6.26876 6.83126 6.03852 6.83126 6.03852C6.83126 6.03852 6.46306 5.10153 6.99059 4.43172C7.55552 3.76215 8.86525 3.58317 8.86525 3.58317C8.86525 3.58317 8.89422 4.96677 8.36691 5.59919ZM6.38442 5.73668C6.52987 6.41058 5.92847 6.93038 5.92847 6.93038C5.92847 6.93038 5.14468 6.70127 4.96183 6.02714C4.81637 5.35324 5.34573 4.38433 5.34573 4.38433C5.34573 4.38433 6.20157 5.06255 6.38442 5.73668ZM7.41992 7.61248C6.74601 7.75793 6.22622 7.15653 6.22622 7.15653C6.22622 7.15653 6.45533 6.37274 7.12945 6.18989C7.80359 6.00705 8.77227 6.57379 8.77227 6.57379C8.77227 6.57379 8.09405 7.42963 7.41992 7.61248ZM5.25252 7.41234C5.47299 8.04931 4.94568 8.68173 4.94568 8.68173C4.94568 8.68173 4.12382 8.56455 3.90335 7.92759C3.68289 7.29062 4.06315 6.24601 4.06315 6.24601C4.06315 6.24601 5.03206 6.77537 5.25252 7.41234ZM6.51327 9.13994C5.8763 9.36041 5.24388 8.8331 5.24388 8.8331C5.24388 8.8331 5.36105 8.01124 5.99802 7.79077C6.63499 7.57031 7.67959 7.95056 7.67959 7.95056C7.67959 7.95056 7.15024 8.91948 6.51327 9.13994ZM4.49383 9.20243C4.82646 9.84009 4.2987 10.5473 4.2987 10.5473C4.2987 10.5473 3.43899 10.5047 3.10637 9.86701C2.77374 9.22936 3.11706 8.10975 3.11706 8.10975C3.11706 8.10975 4.19882 8.52762 4.49383 9.20243ZM5.97936 10.8566C5.34171 11.1893 4.63452 10.6615 4.63452 10.6615C4.63452 10.6615 4.67714 9.80179 5.31479 9.46916C5.95244 9.13653 7.07205 9.47985 7.07205 9.47985C7.07205 9.47985 6.6544 10.5242 5.97936 10.8566ZM3.8081 11.2921C4.25289 11.9304 3.83639 12.7879 3.83639 12.7879C3.83639 12.7879 2.90077 12.9317 2.4562 12.256C2.01141 11.6177 2.13131 10.3471 2.13131 10.3471C2.13131 10.3471 3.36331 10.6538 3.8081 11.2921ZM5.74297 12.8369C5.10464 13.2816 4.24721 12.8651 4.24721 12.8651C4.24721 12.8651 4.10334 11.9295 4.77906 11.485C5.45479 11.0404 6.68792 11.1601 6.68792 11.1601C6.68792 11.1601 6.38154 12.3547 5.74297 12.8369ZM3.38158 13.7946C3.93877 14.3962 3.59636 15.3663 3.59636 15.3663C3.59636 15.3663 2.62267 15.6221 2.06548 15.0205C1.50829 14.4188 1.4791 13.0726 1.4791 13.0726C1.4791 13.0726 2.82463 13.1556 3.38158 13.7946ZM5.57954 15.1166C4.97791 15.6738 4.00786 15.3314 4.00786 15.3314C4.00786 15.3314 3.75206 14.3577 4.35368 13.8005C4.95531 13.2433 6.30153 13.2141 6.30153 13.2141C6.30153 13.2141 6.21856 14.5597 5.57954 15.1166Z" fill="#F4BC58"/>
<path d="M6.86887 6.00121C5.9271 7.15457 5.24592 8.49646 4.82623 9.87733C4.63497 10.5866 4.4437 11.2958 4.32721 12.0055C4.21072 12.7152 4.1314 13.4625 4.08946 14.2101C4.04752 14.9576 4.0432 15.668 4.03865 16.4158C4.0341 17.1635 4.10455 17.8744 4.13739 18.6224C4.20762 19.3706 4.27807 20.0814 4.38569 20.8299C4.4933 21.5783 4.60114 22.2894 4.74615 23.0381C4.52614 22.3263 4.34352 21.6148 4.19852 20.8661C4.05329 20.1548 3.90828 19.4062 3.83805 18.6579C3.73044 17.9095 3.6976 17.1615 3.66476 16.4135C3.63192 15.6655 3.63647 14.9177 3.67841 14.1702C3.72035 13.4226 3.79968 12.6753 3.95378 11.9285C4.10789 11.1816 4.26176 10.4721 4.5278 9.76334C4.75646 9.05433 5.09705 8.38338 5.47503 7.71267C5.85255 7.11673 6.30486 6.52124 6.86887 6.00121Z" fill="#F4BC58"/>
<path d="M17.0559 3.40834C16.1547 4.03849 14.9619 3.43299 14.9619 3.43299C14.9619 3.43299 14.8203 2.12349 15.7215 1.49334C16.6227 0.863199 18.3788 1.06083 18.3788 1.06083C18.3788 1.06083 17.9571 2.7782 17.0559 3.40834ZM14.5538 2.90705C14.511 3.80415 13.5361 4.24689 13.5361 4.24689C13.5361 4.24689 12.6046 3.71777 12.6475 2.82067C12.6903 1.92358 13.6688 0.882614 13.6688 0.882614C13.6688 0.882614 14.5967 2.00996 14.5538 2.90705Z" fill="#FFCC66"/>
<path d="M15.21 5.56596C14.3129 5.52311 13.8701 4.54828 13.8701 4.54828C13.8701 4.54828 14.3992 3.61675 15.2963 3.6596C16.1934 3.70245 17.2344 4.68092 17.2344 4.68092C17.2344 4.68092 16.1071 5.60881 15.21 5.56596ZM12.5611 4.61509C12.6304 5.51287 11.7296 6.06824 11.7296 6.06824C11.7296 6.06824 10.76 5.65105 10.6533 4.75305C10.584 3.85527 11.4136 2.70123 11.4136 2.70123C11.4136 2.70123 12.4917 3.71732 12.5611 4.61509ZM13.5549 7.20104C12.6571 7.27036 12.1017 6.36962 12.1017 6.36962C12.1017 6.36962 12.5189 5.40003 13.4169 5.29332C14.3147 5.224 15.4687 6.0536 15.4687 6.0536C15.4687 6.0536 14.4526 7.13173 13.5549 7.20104ZM11.0161 6.58736C11.1973 7.52321 10.2959 8.19074 10.2959 8.19074C10.2959 8.19074 9.21369 7.84764 9.0696 6.94941C8.88835 6.01356 9.64385 4.7469 9.64385 4.7469C9.64385 4.7469 10.8348 5.65151 11.0161 6.58736ZM12.309 9.17512C11.3731 9.35638 10.7056 8.45496 10.7056 8.45496C10.7056 8.45496 11.0487 7.37274 11.9469 7.22865C12.8828 7.04739 14.1494 7.8029 14.1494 7.8029C14.1494 7.8029 13.2448 8.99387 12.309 9.17512ZM9.43097 9.00805C9.79894 9.98243 8.97094 10.8747 8.97094 10.8747C8.97094 10.8747 7.77542 10.7179 7.40745 9.74354C7.03948 8.76916 7.64702 7.23987 7.64702 7.23987C7.64702 7.23987 9.10039 8.0339 9.43097 9.00805ZM11.3223 11.5621C10.3479 11.93 9.45562 11.102 9.45562 11.102C9.45562 11.102 9.61246 9.90651 10.5868 9.53854C11.5612 9.17057 13.0905 9.77812 13.0905 9.77812C13.0905 9.77812 12.2967 11.1941 11.3223 11.5621ZM8.06701 11.9536C8.58454 12.9288 7.8304 13.9712 7.8304 13.9712C7.8304 13.9712 6.5218 13.9632 6.04167 12.9881C5.56153 12.0131 5.98304 10.3331 5.98304 10.3331C5.98304 10.3331 7.54949 10.9783 8.06701 11.9536ZM10.3703 14.3979C9.39503 14.9154 8.3527 14.1613 8.3527 14.1613C8.3527 14.1613 8.36066 12.8527 9.33572 12.3726C10.311 11.855 11.9908 12.3139 11.9908 12.3139C11.9908 12.3139 11.3456 13.8804 10.3703 14.3979Z" fill="#FFCC66"/>
<path d="M15.0738 3.43396C13.4967 4.54606 12.2166 5.99647 11.1973 7.59803C10.7063 8.41762 10.2526 9.23744 9.87326 10.1325C9.49414 10.9901 9.15219 11.8854 8.84762 12.7809C8.54305 13.6764 8.27565 14.6095 8.04563 15.5429C7.81561 16.4762 7.62298 17.4098 7.43035 18.3434C7.27511 19.2772 7.11964 20.2484 6.9644 21.1822C6.84654 22.1162 6.72846 23.0876 6.64777 24.0593C6.6163 23.0869 6.62221 22.1148 6.70268 21.1806C6.78337 20.2089 6.86406 19.2373 6.98191 18.3033C7.1 17.3319 7.29263 16.3983 7.52264 15.4649C7.75266 14.5316 7.98268 13.5982 8.28748 12.6653C8.59227 11.7325 8.97162 10.8374 9.38835 9.94259C9.80508 9.04776 10.2961 8.22818 10.8246 7.40881C11.3904 6.58968 11.9932 5.84555 12.7077 5.17688C13.4224 4.47082 14.2112 3.87739 15.0738 3.43396Z" fill="#FFCC66"/>
<path d="M12.3859 14.8963C11.45 15.0776 10.5511 15.3338 9.72628 15.7027C8.90145 16.0716 8.1505 16.5905 7.47364 17.222C6.83417 17.8537 6.30618 18.5983 5.85251 19.4181C5.62568 19.828 5.43624 20.2382 5.28395 20.6859C5.13167 21.1337 4.97938 21.5814 4.86449 22.0294C4.86745 21.5434 4.90756 21.0949 5.02269 20.6096C5.13758 20.1616 5.25271 19.6762 5.44238 19.2287C5.82172 18.3336 6.35017 17.5143 7.06464 16.8456C7.77912 16.1769 8.60485 15.6585 9.54161 15.3277C10.4784 14.9969 11.4514 14.8532 12.3859 14.8963Z" fill="#83BF4F"/>
</svg>
