<svg width="17" height="19" viewBox="0 0 17 19" fill="none" xmlns="http://www.w3.org/2000/svg">
<path d="M15.7975 7.50839C15.7975 7.50839 14.8667 8.37713 13.2844 9.401C12.85 6.88786 11.64 3.78522 9.28194 0C9.28194 0 8.50628 4.06446 5.93109 7.88071C4.81414 6.14323 4.31772 4.77807 4.31772 4.77807C-3.74915 12.876 2.95255 18.6159 7.17215 18.6159C12.5707 18.6159 17.3178 16.0096 15.7975 7.50839Z" fill="#FF9D33"/>
<path d="M12.602 14.7064C13.0674 13.6826 13.4087 12.3484 13.4707 10.673C13.4707 10.673 12.8192 11.2315 11.7022 11.9451C11.392 10.2696 10.5543 8.2219 8.90985 5.67773C8.90985 5.67773 8.38241 8.37703 6.58287 10.9522C5.80721 9.80425 5.46592 8.87346 5.46592 8.87346C4.13179 10.9833 3.60434 12.6587 3.57331 13.9928C2.82868 13.7136 2.36328 13.4964 2.36328 13.4964C3.63536 17.2816 6.27261 18.1193 7.45161 18.1193C9.56141 18.1193 11.7022 17.4988 13.812 14.4892C13.812 14.4582 13.3466 14.5823 12.602 14.7064Z" fill="#FFCE31"/>
<path d="M4.90687 13.0002C4.90687 13.0002 5.77561 14.1792 6.42716 13.9C6.42716 13.9 7.66822 11.9453 9.46775 10.8594C9.46775 10.8594 9.09544 13.8379 9.52981 14.3654C10.0883 15.079 11.6086 13.5897 11.6086 13.5897C11.6086 15.3582 9.68494 17.5611 7.94746 17.5611C6.27203 17.5611 3.85197 15.6374 4.90687 13.0002Z" fill="#FFDF85"/>
<path d="M13.5635 4.99547C14.215 4.06468 14.6494 3.07183 14.6494 3.07183C15.7353 4.87137 15.0838 5.95729 14.6184 6.29858C13.9668 6.795 12.8189 6.0814 13.5635 4.99547ZM1.7114 4.68521C1.05985 3.59928 0.997795 2.23412 0.997795 2.23412C-0.553526 4.5611 0.0359761 5.86421 0.563425 6.23653C1.24601 6.76398 2.42501 5.95729 1.7114 4.68521ZM5.31047 2.26515C5.40355 1.52051 5.09328 0.775879 5.09328 0.775879C6.55152 1.7377 6.55152 2.54438 6.36537 2.88568C6.08613 3.28902 5.21739 3.10286 5.31047 2.26515Z" fill="#FF9D33"/>
</svg>
